<svg width="64" height="68" viewBox="0 0 64 68" fill="none" xmlns="http://www.w3.org/2000/svg">
<g filter="url(#filter0_d_20_54)">
<path d="M4 3.68187V56.3151C4.00035 56.4293 4.03441 56.5408 4.0979 56.6357C4.1614 56.7307 4.2515 56.8047 4.35691 56.8486C4.46232 56.8925 4.57835 56.9043 4.69045 56.8826C4.80255 56.8608 4.90572 56.8064 4.98704 56.7262L32.3925 29.9998L4.98704 3.27072C4.90572 3.19054 4.80255 3.13616 4.69045 3.1144C4.57835 3.09263 4.46232 3.10444 4.35691 3.14835C4.2515 3.19226 4.1614 3.26631 4.0979 3.36122C4.03441 3.45614 4.00035 3.56768 4 3.68187Z" fill="#3BCCFF"/>
<path d="M43.8835 19.018L9.52054 0.0861125L9.49912 0.074059C8.90716 -0.247365 8.34467 0.553517 8.82948 1.01958L35.7662 26.7764L43.8835 19.018Z" fill="#48FF48"/>
<path d="M8.83203 58.9804C8.34453 59.4465 8.90703 60.2474 9.50166 59.926L9.52309 59.9139L43.8833 40.982L35.766 33.2209L8.83203 58.9804Z" fill="#FF3333"/>
<path d="M57.7555 26.6519L48.1596 21.3672L39.137 30.0001L48.1596 38.629L57.7555 33.3483C60.3657 31.9059 60.3657 28.0943 57.7555 26.6519Z" fill="#FFD400"/>
</g>
<defs>
<filter id="filter0_d_20_54" x="0" y="0" width="63.7131" height="68" filterUnits="userSpaceOnUse" color-interpolation-filters="sRGB">
<feFlood flood-opacity="0" result="BackgroundImageFix"/>
<feColorMatrix in="SourceAlpha" type="matrix" values="0 0 0 0 0 0 0 0 0 0 0 0 0 0 0 0 0 0 127 0" result="hardAlpha"/>
<feOffset dy="4"/>
<feGaussianBlur stdDeviation="2"/>
<feComposite in2="hardAlpha" operator="out"/>
<feColorMatrix type="matrix" values="0 0 0 0 0 0 0 0 0 0 0 0 0 0 0 0 0 0 0.25 0"/>
<feBlend mode="normal" in2="BackgroundImageFix" result="effect1_dropShadow_20_54"/>
<feBlend mode="normal" in="SourceGraphic" in2="effect1_dropShadow_20_54" result="shape"/>
</filter>
</defs>
</svg>
